<svg id="visual" viewBox="0 0 960 300" width="960" height="300" xmlns="http://www.w3.org/2000/svg" xmlns:xlink="http://www.w3.org/1999/xlink" version="1.1"><rect x="0" y="0" width="960" height="300" fill="#001220"></rect><path d="M0 269L40 239.7C80 210.3 160 151.7 240 152.2C320 152.7 400 212.3 480 228.8C560 245.3 640 218.7 720 217.7C800 216.7 880 241.3 920 253.7L960 266L960 0L920 0C880 0 800 0 720 0C640 0 560 0 480 0C400 0 320 0 240 0C160 0 80 0 40 0L0 0Z" fill="#c62368"></path><path d="M0 207L40 209C80 211 160 215 240 207.8C320 200.7 400 182.3 480 161.3C560 140.3 640 116.7 720 120.2C800 123.7 880 154.3 920 169.7L960 185L960 0L920 0C880 0 800 0 720 0C640 0 560 0 480 0C400 0 320 0 240 0C160 0 80 0 40 0L0 0Z" fill="#cf3068"></path><path d="M0 198L40 186.3C80 174.7 160 151.3 240 130.8C320 110.3 400 92.7 480 88.5C560 84.3 640 93.7 720 113.2C800 132.7 880 162.3 920 177.2L960 192L960 0L920 0C880 0 800 0 720 0C640 0 560 0 480 0C400 0 320 0 240 0C160 0 80 0 40 0L0 0Z" fill="#d73b67"></path><path d="M0 88L40 84.5C80 81 160 74 240 84.2C320 94.3 400 121.7 480 135.8C560 150 640 151 720 148.2C800 145.3 880 138.7 920 135.3L960 132L960 0L920 0C880 0 800 0 720 0C640 0 560 0 480 0C400 0 320 0 240 0C160 0 80 0 40 0L0 0Z" fill="#df4667"></path><path d="M0 78L40 82.2C80 86.3 160 94.7 240 98.3C320 102 400 101 480 92.8C560 84.7 640 69.3 720 76.7C800 84 880 114 920 129L960 144L960 0L920 0C880 0 800 0 720 0C640 0 560 0 480 0C400 0 320 0 240 0C160 0 80 0 40 0L0 0Z" fill="#e75167"></path><path d="M0 98L40 87.7C80 77.3 160 56.7 240 47.8C320 39 400 42 480 55.2C560 68.3 640 91.7 720 100.5C800 109.3 880 103.7 920 100.8L960 98L960 0L920 0C880 0 800 0 720 0C640 0 560 0 480 0C400 0 320 0 240 0C160 0 80 0 40 0L0 0Z" fill="#ee5c67"></path><path d="M0 58L40 62.3C80 66.7 160 75.3 240 71.2C320 67 400 50 480 40.2C560 30.3 640 27.7 720 26.5C800 25.3 880 25.7 920 25.8L960 26L960 0L920 0C880 0 800 0 720 0C640 0 560 0 480 0C400 0 320 0 240 0C160 0 80 0 40 0L0 0Z" fill="#f46767"></path><path d="M0 12L40 13.2C80 14.3 160 16.7 240 17.7C320 18.7 400 18.3 480 16.3C560 14.3 640 10.7 720 15.5C800 20.3 880 33.7 920 40.3L960 47L960 0L920 0C880 0 800 0 720 0C640 0 560 0 480 0C400 0 320 0 240 0C160 0 80 0 40 0L0 0Z" fill="#fa7268"></path></svg>