<svg id="visual" viewBox="0 0 960 300" width="960" height="300" xmlns="http://www.w3.org/2000/svg" xmlns:xlink="http://www.w3.org/1999/xlink" version="1.1"><rect x="0" y="0" width="960" height="300" fill="#001220"></rect><path d="M0 139L22.8 144.7C45.7 150.3 91.3 161.7 137 168.8C182.7 176 228.3 179 274 172.8C319.7 166.7 365.3 151.3 411.2 141.5C457 131.7 503 127.3 548.8 130.3C594.7 133.3 640.3 143.7 686 150.7C731.7 157.7 777.3 161.3 823 164.5C868.7 167.7 914.3 170.3 937.2 171.7L960 173L960 301L937.2 301C914.3 301 868.7 301 823 301C777.3 301 731.7 301 686 301C640.3 301 594.7 301 548.8 301C503 301 457 301 411.2 301C365.3 301 319.7 301 274 301C228.3 301 182.7 301 137 301C91.3 301 45.7 301 22.8 301L0 301Z" fill="#c62368"></path><path d="M0 149L22.8 153C45.7 157 91.3 165 137 164C182.7 163 228.3 153 274 149.7C319.7 146.3 365.3 149.7 411.2 157.5C457 165.3 503 177.7 548.8 178.3C594.7 179 640.3 168 686 167.8C731.7 167.7 777.3 178.3 823 179.2C868.7 180 914.3 171 937.2 166.5L960 162L960 301L937.2 301C914.3 301 868.7 301 823 301C777.3 301 731.7 301 686 301C640.3 301 594.7 301 548.8 301C503 301 457 301 411.2 301C365.3 301 319.7 301 274 301C228.3 301 182.7 301 137 301C91.3 301 45.7 301 22.8 301L0 301Z" fill="#ce2e68"></path><path d="M0 190L22.8 184.5C45.7 179 91.3 168 137 169.8C182.7 171.7 228.3 186.3 274 193.3C319.7 200.3 365.3 199.7 411.2 199C457 198.3 503 197.7 548.8 198.3C594.7 199 640.3 201 686 198.3C731.7 195.7 777.3 188.3 823 188C868.7 187.7 914.3 194.3 937.2 197.7L960 201L960 301L937.2 301C914.3 301 868.7 301 823 301C777.3 301 731.7 301 686 301C640.3 301 594.7 301 548.8 301C503 301 457 301 411.2 301C365.3 301 319.7 301 274 301C228.3 301 182.7 301 137 301C91.3 301 45.7 301 22.8 301L0 301Z" fill="#d53867"></path><path d="M0 195L22.8 199C45.7 203 91.3 211 137 214.2C182.7 217.3 228.3 215.7 274 213.5C319.7 211.3 365.3 208.7 411.2 208.5C457 208.3 503 210.7 548.8 206.2C594.7 201.7 640.3 190.3 686 187.7C731.7 185 777.3 191 823 192.5C868.7 194 914.3 191 937.2 189.5L960 188L960 301L937.2 301C914.3 301 868.7 301 823 301C777.3 301 731.7 301 686 301C640.3 301 594.7 301 548.8 301C503 301 457 301 411.2 301C365.3 301 319.7 301 274 301C228.3 301 182.7 301 137 301C91.3 301 45.7 301 22.8 301L0 301Z" fill="#dc4267"></path><path d="M0 206L22.8 210.7C45.7 215.3 91.3 224.7 137 223.5C182.7 222.3 228.3 210.7 274 205.5C319.7 200.3 365.3 201.7 411.2 204.3C457 207 503 211 548.8 212.7C594.7 214.3 640.3 213.7 686 210.8C731.7 208 777.3 203 823 202C868.7 201 914.3 204 937.2 205.5L960 207L960 301L937.2 301C914.3 301 868.7 301 823 301C777.3 301 731.7 301 686 301C640.3 301 594.7 301 548.8 301C503 301 457 301 411.2 301C365.3 301 319.7 301 274 301C228.3 301 182.7 301 137 301C91.3 301 45.7 301 22.8 301L0 301Z" fill="#e34c67"></path><path d="M0 213L22.8 215C45.7 217 91.3 221 137 220.8C182.7 220.7 228.3 216.3 274 219.5C319.7 222.7 365.3 233.3 411.2 237.8C457 242.3 503 240.7 548.8 239.8C594.7 239 640.3 239 686 235C731.7 231 777.3 223 823 218.7C868.7 214.3 914.3 213.7 937.2 213.3L960 213L960 301L937.2 301C914.3 301 868.7 301 823 301C777.3 301 731.7 301 686 301C640.3 301 594.7 301 548.8 301C503 301 457 301 411.2 301C365.3 301 319.7 301 274 301C228.3 301 182.7 301 137 301C91.3 301 45.7 301 22.8 301L0 301Z" fill="#e95667"></path><path d="M0 254L22.8 250.2C45.7 246.3 91.3 238.7 137 238.8C182.7 239 228.3 247 274 247.5C319.7 248 365.3 241 411.2 237.2C457 233.3 503 232.7 548.8 234.5C594.7 236.3 640.3 240.7 686 240.7C731.7 240.7 777.3 236.3 823 237.3C868.7 238.3 914.3 244.7 937.2 247.8L960 251L960 301L937.2 301C914.3 301 868.7 301 823 301C777.3 301 731.7 301 686 301C640.3 301 594.7 301 548.8 301C503 301 457 301 411.2 301C365.3 301 319.7 301 274 301C228.3 301 182.7 301 137 301C91.3 301 45.7 301 22.8 301L0 301Z" fill="#ef5f67"></path><path d="M0 253L22.8 255.8C45.7 258.7 91.3 264.3 137 265.3C182.7 266.3 228.3 262.7 274 259.7C319.7 256.7 365.3 254.3 411.2 253.8C457 253.3 503 254.7 548.8 258.3C594.7 262 640.3 268 686 268.2C731.7 268.3 777.3 262.7 823 260.8C868.7 259 914.3 261 937.2 262L960 263L960 301L937.2 301C914.3 301 868.7 301 823 301C777.3 301 731.7 301 686 301C640.3 301 594.7 301 548.8 301C503 301 457 301 411.2 301C365.3 301 319.7 301 274 301C228.3 301 182.7 301 137 301C91.3 301 45.7 301 22.8 301L0 301Z" fill="#f56967"></path><path d="M0 268L22.8 268.7C45.7 269.3 91.3 270.7 137 272.5C182.7 274.3 228.3 276.7 274 278.8C319.7 281 365.3 283 411.2 281.2C457 279.3 503 273.7 548.8 272.5C594.7 271.3 640.3 274.7 686 276.8C731.7 279 777.3 280 823 278.3C868.7 276.7 914.3 272.3 937.2 270.2L960 268L960 301L937.2 301C914.3 301 868.7 301 823 301C777.3 301 731.7 301 686 301C640.3 301 594.7 301 548.8 301C503 301 457 301 411.2 301C365.3 301 319.7 301 274 301C228.3 301 182.7 301 137 301C91.3 301 45.7 301 22.8 301L0 301Z" fill="#fa7268"></path></svg>